<svg version="1.1" xml="http://www.w3.org/XML/1998/namespace" xmlns="http://www.w3.org/2000/svg" baseProfile="full" width="210mm" height="290mm" viewBox="0 0 210 290">
  <defs/>
  <g>
    <g>
      <text style="font-family:Bitstream Charter;font-weight:bold;font-size:35.0;" text-anchor="middle" x="45.5" y="45.9" xml:space="preserve">1</text>
    </g>
    <g>
      <text style="font-family:Bitstream Charter;font-weight:bold;font-size:25.0;fill:#cc0000;" text-anchor="middle" transform="rotate(180,45.5,68.46)" x="45.5" y="68.46" xml:space="preserve">1</text>
    </g>
    <path d="M 16.95 11.85 Q 16.95 9.95 18.85 9.95 L 72.15 9.95 Q 74.05 9.95 74.05 11.85 L 74.05 96.15 Q 74.05 98.05 72.15 98.05 L 18.85 98.05 Q 16.95 98.05 16.95 96.15 z" fill="none" style="stroke:#000000;stroke-width:1.9"/>
  </g>
  <g>
    <g>
      <text style="font-family:Bitstream Charter;font-weight:bold;font-size:35.0;" text-anchor="middle" x="104.5" y="45.9" xml:space="preserve">2</text>
    </g>
    <g>
      <text style="font-family:Bitstream Charter;font-weight:bold;font-size:25.0;fill:#cc0000;" text-anchor="middle" transform="rotate(180,104.5,68.46)" x="104.5" y="68.46" xml:space="preserve">2</text>
    </g>
    <path d="M 75.95 11.85 Q 75.95 9.95 77.85 9.95 L 131.15 9.95 Q 133.05 9.95 133.05 11.85 L 133.05 96.15 Q 133.05 98.05 131.15 98.05 L 77.85 98.05 Q 75.95 98.05 75.95 96.15 z" fill="none" style="stroke:#000000;stroke-width:1.9"/>
  </g>
  <g>
    <g>
      <text style="font-family:Bitstream Charter;font-weight:bold;font-size:35.0;" text-anchor="middle" x="163.5" y="45.9" xml:space="preserve">4</text>
    </g>
    <g>
      <text style="font-family:Bitstream Charter;font-weight:bold;font-size:25.0;fill:#cc0000;" text-anchor="middle" transform="rotate(180,163.5,68.46)" x="163.5" y="68.46" xml:space="preserve">3</text>
    </g>
    <path d="M 134.95 11.85 Q 134.95 9.95 136.85 9.95 L 190.15 9.95 Q 192.05 9.95 192.05 11.85 L 192.05 96.15 Q 192.05 98.05 190.15 98.05 L 136.85 98.05 Q 134.95 98.05 134.95 96.15 z" fill="none" style="stroke:#000000;stroke-width:1.9"/>
  </g>
  <g>
    <g>
      <text style="font-family:Bitstream Charter;font-weight:bold;font-size:35.0;" text-anchor="middle" x="45.5" y="135.9" xml:space="preserve">8</text>
    </g>
    <g>
      <text style="font-family:Bitstream Charter;font-weight:bold;font-size:25.0;fill:#cc0000;" text-anchor="middle" transform="rotate(180,45.5,158.46)" x="45.5" y="158.46" xml:space="preserve">4</text>
    </g>
    <path d="M 16.95 101.85 Q 16.95 99.95 18.85 99.95 L 72.15 99.95 Q 74.05 99.95 74.05 101.85 L 74.05 186.15 Q 74.05 188.05 72.15 188.05 L 18.85 188.05 Q 16.95 188.05 16.95 186.15 z" fill="none" style="stroke:#000000;stroke-width:1.9"/>
  </g>
  <g>
    <g>
      <text style="font-family:Bitstream Charter;font-weight:bold;font-size:35.0;" text-anchor="middle" x="104.5" y="135.9" xml:space="preserve">16</text>
    </g>
    <g>
      <text style="font-family:Bitstream Charter;font-weight:bold;font-size:25.0;fill:#cc0000;" text-anchor="middle" transform="rotate(180,104.5,158.46)" x="104.5" y="158.46" xml:space="preserve">5</text>
    </g>
    <path d="M 75.95 101.85 Q 75.95 99.95 77.85 99.95 L 131.15 99.95 Q 133.05 99.95 133.05 101.85 L 133.05 186.15 Q 133.05 188.05 131.15 188.05 L 77.85 188.05 Q 75.95 188.05 75.95 186.15 z" fill="none" style="stroke:#000000;stroke-width:1.9"/>
  </g>
  <g>
    <g>
      <text style="font-family:Bitstream Charter;font-weight:bold;font-size:35.0;" text-anchor="middle" x="163.5" y="135.9" xml:space="preserve">32</text>
    </g>
    <g>
      <text style="font-family:Bitstream Charter;font-weight:bold;font-size:25.0;fill:#cc0000;" text-anchor="middle" transform="rotate(180,163.5,158.46)" x="163.5" y="158.46" xml:space="preserve">6</text>
    </g>
    <path d="M 134.95 101.85 Q 134.95 99.95 136.85 99.95 L 190.15 99.95 Q 192.05 99.95 192.05 101.85 L 192.05 186.15 Q 192.05 188.05 190.15 188.05 L 136.85 188.05 Q 134.95 188.05 134.95 186.15 z" fill="none" style="stroke:#000000;stroke-width:1.9"/>
  </g>
  <g>
    <g>
      <text style="font-family:Bitstream Charter;font-weight:bold;font-size:35.0;" text-anchor="middle" x="45.5" y="225.9" xml:space="preserve">64</text>
    </g>
    <g>
      <text style="font-family:Bitstream Charter;font-weight:bold;font-size:25.0;fill:#cc0000;" text-anchor="middle" transform="rotate(180,45.5,248.46)" x="45.5" y="248.46" xml:space="preserve">7</text>
    </g>
    <path d="M 16.95 191.85 Q 16.95 189.95 18.85 189.95 L 72.15 189.95 Q 74.05 189.95 74.05 191.85 L 74.05 276.15 Q 74.05 278.05 72.15 278.05 L 18.85 278.05 Q 16.95 278.05 16.95 276.15 z" fill="none" style="stroke:#000000;stroke-width:1.9"/>
  </g>
  <g>
    <g>
      <text style="font-family:Ume Mincho;font-weight:bold;font-size:35.0;" text-anchor="middle" x="104.5" y="225.9" xml:space="preserve">&#65311;</text>
    </g>
    <g>
      <text style="font-family:Bitstream Charter;font-weight:bold;font-size:25.0;fill:#cc0000;" text-anchor="middle" transform="rotate(180,104.5,248.46)" x="104.5" y="248.46" xml:space="preserve">8</text>
    </g>
    <path d="M 75.95 191.85 Q 75.95 189.95 77.85 189.95 L 131.15 189.95 Q 133.05 189.95 133.05 191.85 L 133.05 276.15 Q 133.05 278.05 131.15 278.05 L 77.85 278.05 Q 75.95 278.05 75.95 276.15 z" fill="none" style="stroke:#000000;stroke-width:1.9"/>
  </g>
  <g>
    <g>
      <text style="font-family:Ume Mincho;font-weight:bold;font-size:35.0;" text-anchor="middle" x="163.5" y="225.9" xml:space="preserve">&#26086;</text>
    </g>
    <g>
      <text style="font-family:Bitstream Charter;font-weight:bold;font-size:25.0;fill:#cc0000;" text-anchor="middle" transform="rotate(180,163.5,248.46)" x="163.5" y="248.46" xml:space="preserve">9</text>
    </g>
    <path d="M 134.95 191.85 Q 134.95 189.95 136.85 189.95 L 190.15 189.95 Q 192.05 189.95 192.05 191.85 L 192.05 276.15 Q 192.05 278.05 190.15 278.05 L 136.85 278.05 Q 134.95 278.05 134.95 276.15 z" fill="none" style="stroke:#000000;stroke-width:1.9"/>
  </g>
</svg>
