<svg xmlns:xlink="http://www.w3.org/1999/xlink" xmlns="http://www.w3.org/2000/svg" baseProfile="full" height="290mm" version="1.1" viewBox="0 0 210 290" width="210mm">
  <g>
    <rect height="88" rx="2" ry="2" style="fill:#ffffff" width="57" x="17.0" y="10.0"/>
    <g>
      <text style="font-family:Bitstream Charter;font-size:35.0px;font-weight:bold;text-anchor:middle" x="45.5" y="44.0">1</text>
    </g>
    <g>
      <text style="fill:#cc0000;font-family:Bitstream Charter;font-size:25.0px;font-weight:bold;text-anchor:middle" transform="rotate(180,45.5,71.5)" x="45.5" y="71.5">1</text>
    </g>
    <rect height="88" rx="2" ry="2" style="fill:none;stroke:#000000;stroke-width:2" width="57" x="17.0" y="10.0"/>
  </g>
  <g>
    <rect height="88" rx="2" ry="2" style="fill:#ffffff" width="57" x="76.0" y="10.0"/>
    <g>
      <text style="font-family:Bitstream Charter;font-size:35.0px;font-weight:bold;text-anchor:middle" x="104.5" y="44.0">2</text>
    </g>
    <g>
      <text style="fill:#cc0000;font-family:Bitstream Charter;font-size:25.0px;font-weight:bold;text-anchor:middle" transform="rotate(180,104.5,71.5)" x="104.5" y="71.5">2</text>
    </g>
    <rect height="88" rx="2" ry="2" style="fill:none;stroke:#000000;stroke-width:2" width="57" x="76.0" y="10.0"/>
  </g>
  <g>
    <rect height="88" rx="2" ry="2" style="fill:#ffffff" width="57" x="135.0" y="10.0"/>
    <g>
      <text style="font-family:Bitstream Charter;font-size:35.0px;font-weight:bold;text-anchor:middle" x="163.5" y="44.0">4</text>
    </g>
    <g>
      <text style="fill:#cc0000;font-family:Bitstream Charter;font-size:25.0px;font-weight:bold;text-anchor:middle" transform="rotate(180,163.5,71.5)" x="163.5" y="71.5">3</text>
    </g>
    <rect height="88" rx="2" ry="2" style="fill:none;stroke:#000000;stroke-width:2" width="57" x="135.0" y="10.0"/>
  </g>
  <g>
    <rect height="88" rx="2" ry="2" style="fill:#ffffff" width="57" x="17.0" y="100.0"/>
    <g>
      <text style="font-family:Bitstream Charter;font-size:35.0px;font-weight:bold;text-anchor:middle" x="45.5" y="134.0">8</text>
    </g>
    <g>
      <text style="fill:#cc0000;font-family:Bitstream Charter;font-size:25.0px;font-weight:bold;text-anchor:middle" transform="rotate(180,45.5,161.5)" x="45.5" y="161.5">4</text>
    </g>
    <rect height="88" rx="2" ry="2" style="fill:none;stroke:#000000;stroke-width:2" width="57" x="17.0" y="100.0"/>
  </g>
  <g>
    <rect height="88" rx="2" ry="2" style="fill:#ffffff" width="57" x="76.0" y="100.0"/>
    <g>
      <text style="font-family:Bitstream Charter;font-size:35.0px;font-weight:bold;text-anchor:middle" x="104.5" y="134.0">16</text>
    </g>
    <g>
      <text style="fill:#cc0000;font-family:Bitstream Charter;font-size:25.0px;font-weight:bold;text-anchor:middle" transform="rotate(180,104.5,161.5)" x="104.5" y="161.5">5</text>
    </g>
    <rect height="88" rx="2" ry="2" style="fill:none;stroke:#000000;stroke-width:2" width="57" x="76.0" y="100.0"/>
  </g>
  <g>
    <rect height="88" rx="2" ry="2" style="fill:#ffffff" width="57" x="135.0" y="100.0"/>
    <g>
      <text style="font-family:Bitstream Charter;font-size:35.0px;font-weight:bold;text-anchor:middle" x="163.5" y="134.0">32</text>
    </g>
    <g>
      <text style="fill:#cc0000;font-family:Bitstream Charter;font-size:25.0px;font-weight:bold;text-anchor:middle" transform="rotate(180,163.5,161.5)" x="163.5" y="161.5">6</text>
    </g>
    <rect height="88" rx="2" ry="2" style="fill:none;stroke:#000000;stroke-width:2" width="57" x="135.0" y="100.0"/>
  </g>
  <g>
    <rect height="88" rx="2" ry="2" style="fill:#ffffff" width="57" x="17.0" y="190.0"/>
    <g>
      <text style="font-family:Bitstream Charter;font-size:35.0px;font-weight:bold;text-anchor:middle" x="45.5" y="224.0">64</text>
    </g>
    <g>
      <text style="fill:#cc0000;font-family:Bitstream Charter;font-size:25.0px;font-weight:bold;text-anchor:middle" transform="rotate(180,45.5,251.5)" x="45.5" y="251.5">7</text>
    </g>
    <rect height="88" rx="2" ry="2" style="fill:none;stroke:#000000;stroke-width:2" width="57" x="17.0" y="190.0"/>
  </g>
  <g>
    <rect height="88" rx="2" ry="2" style="fill:#ffffff" width="57" x="76.0" y="190.0"/>
    <g>
      <text style="font-family:Ume Mincho;font-size:35.0px;font-weight:bold;text-anchor:middle" x="104.5" y="224.0">&#65311;</text>
    </g>
    <g>
      <text style="fill:#cc0000;font-family:Bitstream Charter;font-size:25.0px;font-weight:bold;text-anchor:middle" transform="rotate(180,104.5,251.5)" x="104.5" y="251.5">8</text>
    </g>
    <rect height="88" rx="2" ry="2" style="fill:none;stroke:#000000;stroke-width:2" width="57" x="76.0" y="190.0"/>
  </g>
  <g>
    <rect height="88" rx="2" ry="2" style="fill:#ffffff" width="57" x="135.0" y="190.0"/>
    <g>
      <text style="font-family:Ume Mincho;font-size:35.0px;font-weight:bold;text-anchor:middle" x="163.5" y="224.0">&#26086;</text>
    </g>
    <g>
      <text style="fill:#cc0000;font-family:Bitstream Charter;font-size:25.0px;font-weight:bold;text-anchor:middle" transform="rotate(180,163.5,251.5)" x="163.5" y="251.5">9</text>
    </g>
    <rect height="88" rx="2" ry="2" style="fill:none;stroke:#000000;stroke-width:2" width="57" x="135.0" y="190.0"/>
  </g>
</svg>
